{
  "accessors": [
    {
      "bufferView": 3,
      "componentType": 5126,
      "count": 6019,
      "max": [
        2.892059087753296,
        7.014171123504639,
        0.5603592991828918
      ],
      "min": [
        -2.892059087753296,
        -0.04129223898053169,
        -0.7302774786949158
      ],
      "type": "VEC3"
    },
    {
      "bufferView": 3,
      "byteOffset": 72228,
      "componentType": 5126,
      "count": 6019,
      "max": [
        0.9999679327011108,
        0.9999520778656006,
        0.9999341368675232
      ],
      "min": [
        -0.9999679327011108,
        -0.9993945956230164,
        -0.9999998211860657
      ],
      "type": "VEC3"
    },
    {
      "bufferView": 2,
      "componentType": 5126,
      "count": 6019,
      "max": [
        0.9994519948959351,
        1.0481510162353516
      ],
      "min": [
        0.010492139495909214,
        0.003995656035840511
      ],
      "type": "VEC2"
    },
    {
      "bufferView": 1,
      "componentType": 5125,
      "count": 13269,
      "type": "SCALAR"
    },
    {
      "bufferView": 3,
      "byteOffset": 144456,
      "componentType": 5126,
      "count": 6019,
      "max": [
        2.9028706550598145,
        7.023566722869873,
        0.5714710354804993
      ],
      "min": [
        -2.9028706550598145,
        -0.04944496601819992,
        -0.7399818897247314
      ],
      "type": "VEC3"
    },
    {
      "bufferView": 3,
      "byteOffset": 216684,
      "componentType": 5126,
      "count": 6019,
      "max": [
        0.9999669194221497,
        0.999458909034729,
        1.0
      ],
      "min": [
        -0.9999669194221497,
        -0.9999480843544006,
        -0.9999348521232605
      ],
      "type": "VEC3"
    },
    {
      "bufferView": 2,
      "byteOffset": 48152,
      "componentType": 5126,
      "count": 6019,
      "max": [
        0.9994519948959351,
        1.0481510162353516
      ],
      "min": [
        0.010492139495909214,
        0.003995656035840511
      ],
      "type": "VEC2"
    },
    {
      "bufferView": 1,
      "byteOffset": 53076,
      "componentType": 5125,
      "count": 13269,
      "type": "SCALAR"
    },
    {
      "bufferView": 5,
      "componentType": 5126,
      "count": 17,
      "max": [
        1.0,
        0.2669270634651184,
        0.266927033662796,
        0.0,
        0.0009001549915410578,
        1.0,
        0.2669270634651184,
        0.0,
        0.2669270634651184,
        0.24445484578609467,
        1.0,
        0.0,
        0.08147672563791275,
        0.882452666759491,
        0.0744563415646553,
        1.0
      ],
      "min": [
        -0.0039613619446754456,
        -0.2669270634651184,
        -2.830050860325173e-09,
        0.0,
        -6.395143259396718e-08,
        -0.26666009426116943,
        -0.24445486068725586,
        0.0,
        -0.2669270634651184,
        -0.2669270634651184,
        -0.26666009426116943,
        0.0,
        -0.08147675544023514,
        -1.4213895797729492,
        -1.35958993434906,
        1.0
      ],
      "type": "MAT4"
    },
    {
      "bufferView": 0,
      "componentType": 5123,
      "count": 6019,
      "type": "VEC4"
    },
    {
      "bufferView": 4,
      "componentType": 5126,
      "count": 6019,
      "max": [
        1.0,
        0.5,
        0.2183285653591156,
        0.0
      ],
      "min": [
        0.5,
        0.0,
        0.0,
        0.0
      ],
      "type": "VEC4"
    },
    {
      "bufferView": 0,
      "byteOffset": 48152,
      "componentType": 5123,
      "count": 6019,
      "type": "VEC4"
    },
    {
      "bufferView": 4,
      "byteOffset": 96304,
      "componentType": 5126,
      "count": 6019,
      "max": [
        1.0,
        0.5,
        0.2183285653591156,
        0.0
      ],
      "min": [
        0.5,
        0.0,
        0.0,
        0.0
      ],
      "type": "VEC4"
    }
  ],
  "asset": {
    "extras": {
      "author": "Ctool (https://sketchfab.com/ctool)",
      "license": "CC-BY-4.0 (http://creativecommons.org/licenses/by/4.0/)",
      "source": "https://sketchfab.com/3d-models/anime-model-girl-10-year-old-ece5950a8ec140a0875da9efa239996b",
      "title": "Anime Model - Girl 10 Year Old"
    },
    "generator": "Sketchfab-12.66.0",
    "version": "2.0"
  },
  "bufferViews": [
    {
      "buffer": 0,
      "byteLength": 96304,
      "byteStride": 8,
      "name": "shortBufferViews",
      "target": 34962
    },
    {
      "buffer": 0,
      "byteLength": 106152,
      "byteOffset": 96304,
      "name": "floatBufferViews",
      "target": 34963
    },
    {
      "buffer": 0,
      "byteLength": 96304,
      "byteOffset": 202456,
      "byteStride": 8,
      "name": "floatBufferViews",
      "target": 34962
    },
    {
      "buffer": 0,
      "byteLength": 288912,
      "byteOffset": 298760,
      "byteStride": 12,
      "name": "floatBufferViews",
      "target": 34962
    },
    {
      "buffer": 0,
      "byteLength": 192608,
      "byteOffset": 587672,
      "byteStride": 16,
      "name": "floatBufferViews",
      "target": 34962
    },
    {
      "buffer": 0,
      "byteLength": 1088,
      "byteOffset": 780280,
      "name": "floatBufferViews"
    }
  ],
  "buffers": [
    {
      "byteLength": 781368,
      "uri": "scene.bin"
    }
  ],
  "extensionsUsed": [
    "KHR_materials_unlit"
  ],
  "images": [
    {
      "uri": "textures/Texture_baseColor.png"
    }
  ],
  "materials": [
    {
      "alphaMode": "BLEND",
      "doubleSided": true,
      "extensions": {
        "KHR_materials_unlit": {}
      },
      "name": "Texture",
      "pbrMetallicRoughness": {
        "baseColorTexture": {
          "index": 0
        },
        "metallicFactor": 0.0
      }
    },
    {
      "extensions": {
        "KHR_materials_unlit": {}
      },
      "name": "Outline_Border_Color",
      "pbrMetallicRoughness": {
        "baseColorFactor": [
          0.0,
          0.0,
          0.0,
          1.0
        ],
        "metallicFactor": 0.0
      }
    }
  ],
  "meshes": [
    {
      "name": "Object_0",
      "primitives": [
        {
          "attributes": {
            "JOINTS_0": 9,
            "NORMAL": 1,
            "POSITION": 0,
            "TEXCOORD_0": 2,
            "TEXCOORD_1": 2,
            "WEIGHTS_0": 10
          },
          "indices": 3,
          "material": 0,
          "mode": 4
        }
      ]
    },
    {
      "name": "Object_1",
      "primitives": [
        {
          "attributes": {
            "JOINTS_0": 11,
            "NORMAL": 5,
            "POSITION": 4,
            "TEXCOORD_0": 6,
            "WEIGHTS_0": 12
          },
          "indices": 7,
          "material": 1,
          "mode": 4
        }
      ]
    }
  ],
  "nodes": [
    {
      "children": [
        1
      ],
      "matrix": [
        1.0,
        0.0,
        0.0,
        0.0,
        0.0,
        2.220446049250313e-16,
        -1.0,
        0.0,
        0.0,
        1.0,
        2.220446049250313e-16,
        0.0,
        0.0,
        0.0,
        0.0,
        1.0
      ],
      "name": "Sketchfab_model"
    },
    {
      "children": [
        2
      ],
      "name": "root"
    },
    {
      "children": [
        3
      ],
      "matrix": [
        1.0,
        0.0,
        0.0,
        0.0,
        0.0,
        2.220446049250313e-16,
        1.0,
        0.0,
        0.0,
        -1.0,
        2.220446049250313e-16,
        0.0,
        0.0,
        0.0,
        0.0,
        1.0
      ],
      "name": "GLTF_SceneRootNode"
    },
    {
      "children": [
        4
      ],
      "matrix": [
        3.7463419437408447,
        0.0,
        0.0,
        0.0,
        0.0,
        3.7463419437408447,
        0.0,
        0.0,
        0.0,
        0.0,
        3.7463419437408447,
        0.0,
        0.0,
        0.0,
        -0.043147530406713486,
        1.0
      ],
      "name": "Armature_17"
    },
    {
      "children": [
        5,
        7,
        8,
        6
      ],
      "name": "GLTF_created_0"
    },
    {
      "children": [
        9
      ],
      "name": "GLTF_created_0_rootJoint"
    },
    {
      "name": "Character_16"
    },
    {
      "mesh": 0,
      "name": "Object_7",
      "skin": 0
    },
    {
      "mesh": 1,
      "name": "Object_8",
      "skin": 0
    },
    {
      "children": [
        10
      ],
      "name": "root_15",
      "rotation": [
        -0.7071068286895752,
        7.850462159063936e-17,
        -7.850462159063936e-17,
        0.7071068286895752
      ],
      "translation": [
        2.1931868084719956e-16,
        0.9880682826042175,
        0.000344778411090374
      ]
    },
    {
      "children": [
        11,
        19,
        22
      ],
      "name": "hip_14",
      "rotation": [
        0.5008435845375061,
        0.4991549551486969,
        0.5008410215377808,
        0.4991576075553894
      ],
      "scale": [
        0.9999999403953552,
        0.9999998807907104,
        0.9999999403953552
      ],
      "translation": [
        5.652887190529571e-16,
        -2.3282931138624008e-10,
        -7.851166006385413e-13
      ]
    },
    {
      "children": [
        12,
        13,
        16
      ],
      "name": "spine_7",
      "rotation": [
        -0.03489990532398224,
        -0.7062432169914246,
        -0.034899722784757614,
        0.7062468528747559
      ],
      "scale": [
        1.0,
        1.0,
        0.9999999403953552
      ],
      "translation": [
        1.7462298274040222e-10,
        0.162202388048172,
        2.9198699529183955e-15
      ]
    },
    {
      "name": "neck_0",
      "rotation": [
        0.04767175018787384,
        1.4731176001259172e-10,
        3.0866087463721215e-09,
        0.9988630414009094
      ],
      "translation": [
        2.231409037867948e-16,
        0.2723577320575714,
        1.8541790325343754e-09
      ]
    },
    {
      "children": [
        14
      ],
      "name": "l_shoulder_3",
      "rotation": [
        -0.6922218203544617,
        -0.019222216680645943,
        -0.7059363126754761,
        0.14870601892471313
      ],
      "translation": [
        0.12222101539373398,
        0.21299920976161957,
        -0.028467388823628426
      ]
    },
    {
      "children": [
        15
      ],
      "name": "l_elbow_2",
      "rotation": [
        0.046726420521736145,
        -0.03149787336587906,
        -0.1448262333869934,
        0.9878511428833008
      ],
      "scale": [
        1.0,
        0.9999999403953552,
        1.0
      ],
      "translation": [
        2.7838085170373006e-09,
        0.255541056394577,
        -1.4532142156298278e-09
      ]
    },
    {
      "name": "l_wrist_1",
      "rotation": [
        0.14768992364406586,
        -0.11009663343429565,
        -0.009453385137021542,
        0.9828413128852844
      ],
      "scale": [
        1.0000001192092896,
        1.0,
        1.0000001192092896
      ],
      "translation": [
        1.7646719641106756e-08,
        0.23483061790466309,
        -1.19305255452673e-07
      ]
    },
    {
      "children": [
        17
      ],
      "name": "r_shoulder_6",
      "rotation": [
        -0.6922218203544617,
        0.019222309812903404,
        0.7059363126754761,
        0.1487060785293579
      ],
      "translation": [
        -0.12222102284431458,
        0.21299923956394196,
        -0.028467385098338127
      ]
    },
    {
      "children": [
        18
      ],
      "name": "r_elbow_5",
      "rotation": [
        0.04672643169760704,
        0.031497884541749954,
        0.14482636749744415,
        0.9878511428833008
      ],
      "scale": [
        0.9999998807907104,
        0.9999998807907104,
        1.0
      ],
      "translation": [
        -5.066324249014542e-09,
        0.2555411756038666,
        1.0780931702925045e-10
      ]
    },
    {
      "name": "r_wrist_4",
      "rotation": [
        0.14768995344638824,
        0.11009664833545685,
        0.00945326592773199,
        0.9828413128852844
      ],
      "scale": [
        1.0,
        1.0000001192092896,
        1.0
      ],
      "translation": [
        1.862641041405766e-09,
        0.23483067750930786,
        -1.1953375178563874e-07
      ]
    },
    {
      "children": [
        20
      ],
      "name": "l_thigh_10",
      "rotation": [
        -0.7069758772850037,
        -0.01461854763329029,
        -0.7069355249404907,
        0.01461899932473898
      ],
      "scale": [
        1.000051736831665,
        1.0000001192092896,
        1.0
      ],
      "translation": [
        -0.0005030962056480348,
        -0.10423821210861206,
        0.081480972468853
      ]
    },
    {
      "children": [
        21
      ],
      "name": "l_knee_9",
      "rotation": [
        0.0006962727638892829,
        -1.8948570712495894e-08,
        -6.089222015503992e-09,
        0.9999997615814209
      ],
      "translation": [
        1.1799838883774783e-11,
        0.39460185170173645,
        -6.525041840177437e-09
      ]
    },
    {
      "name": "l_ankle_8",
      "rotation": [
        -0.5661445260047913,
        8.011752069062017e-13,
        5.352102767051947e-13,
        0.8243060111999512
      ],
      "translation": [
        7.759072518601778e-14,
        0.38831382989883423,
        7.798289125560132e-09
      ]
    },
    {
      "children": [
        23
      ],
      "name": "r_thigh_13",
      "rotation": [
        -0.7069761753082275,
        -0.01461956650018692,
        -0.7069351077079773,
        0.01461798045784235
      ],
      "scale": [
        1.0000526905059814,
        0.9999999403953552,
        0.9999998807907104
      ],
      "translation": [
        -0.0005039400421082973,
        -0.10423819720745087,
        -0.0814809650182724
      ]
    },
    {
      "children": [
        24
      ],
      "name": "r_knee_12",
      "rotation": [
        0.0006963034975342453,
        -1.8944927404618284e-08,
        -6.089260207176039e-09,
        0.9999997615814209
      ],
      "translation": [
        -7.438463178743859e-09,
        0.3946016728878021,
        -2.8305644494963644e-09
      ]
    },
    {
      "name": "r_ankle_11",
      "rotation": [
        -0.5661444664001465,
        8.232317280122692e-13,
        5.251698056464582e-13,
        0.8243060111999512
      ],
      "scale": [
        0.9999999403953552,
        1.0,
        1.0
      ],
      "translation": [
        -5.960456661568969e-08,
        0.3883139491081238,
        -2.4708885604241004e-08
      ]
    }
  ],
  "samplers": [
    {
      "magFilter": 9728,
      "minFilter": 9986,
      "wrapS": 10497,
      "wrapT": 10497
    }
  ],
  "scene": 0,
  "scenes": [
    {
      "name": "Sketchfab_Scene",
      "nodes": [
        0
      ]
    }
  ],
  "skins": [
    {
      "inverseBindMatrices": 8,
      "joints": [
        5,
        9,
        10,
        11,
        12,
        13,
        14,
        15,
        16,
        17,
        18,
        19,
        20,
        21,
        22,
        23,
        24
      ],
      "skeleton": 5
    }
  ],
  "textures": [
    {
      "sampler": 0,
      "source": 0
    }
  ]
}
